<mxfile host="app.diagrams.net" modified="2022-07-04T10:42:37.087Z" agent="5.0 (Windows NT 10.0; Win64; x64) AppleWebKit/537.36 (KHTML, like Gecko) Chrome/102.0.0.0 Safari/537.36" etag="6gF3muVw5Hj7NZOBCkE1" version="20.0.4" type="github">
  <diagram id="iep3BtNLuLPRfe1I4a22" name="第 1 页">
    <mxGraphModel dx="1673" dy="925" grid="1" gridSize="10" guides="1" tooltips="1" connect="1" arrows="1" fold="1" page="1" pageScale="1" pageWidth="1654" pageHeight="2336" math="0" shadow="0">
      <root>
        <mxCell id="0" />
        <mxCell id="1" parent="0" />
        <mxCell id="lUcR18TIPmvMDtQTiomy-13" value="" style="verticalLabelPosition=bottom;verticalAlign=top;html=1;shape=mxgraph.basic.rect;fillColor2=none;strokeWidth=1;size=20;indent=5;fontSize=14;" vertex="1" parent="1">
          <mxGeometry x="854.75" y="432" width="260" height="558" as="geometry" />
        </mxCell>
        <mxCell id="lUcR18TIPmvMDtQTiomy-14" value="" style="verticalLabelPosition=bottom;verticalAlign=top;html=1;shape=mxgraph.basic.rect;fillColor2=none;strokeWidth=1;size=20;indent=5;fontSize=14;" vertex="1" parent="1">
          <mxGeometry x="550" y="429" width="260" height="558" as="geometry" />
        </mxCell>
        <mxCell id="lUcR18TIPmvMDtQTiomy-15" value="开始" style="strokeWidth=2;html=1;shape=mxgraph.flowchart.terminator;whiteSpace=wrap;fontSize=14;" vertex="1" parent="1">
          <mxGeometry x="360" y="472" width="140" height="60" as="geometry" />
        </mxCell>
        <mxCell id="lUcR18TIPmvMDtQTiomy-16" value="扫码工序" style="shape=parallelogram;html=1;strokeWidth=2;perimeter=parallelogramPerimeter;whiteSpace=wrap;rounded=1;arcSize=12;size=0.23;fontSize=14;" vertex="1" parent="1">
          <mxGeometry x="580" y="472" width="185" height="60" as="geometry" />
        </mxCell>
        <mxCell id="lUcR18TIPmvMDtQTiomy-17" value="查询工序是否需要质检" style="strokeWidth=2;html=1;shape=mxgraph.flowchart.decision;whiteSpace=wrap;fontSize=14;" vertex="1" parent="1">
          <mxGeometry x="890" y="462" width="189.5" height="80" as="geometry" />
        </mxCell>
        <mxCell id="lUcR18TIPmvMDtQTiomy-18" value="结束" style="strokeWidth=2;html=1;shape=mxgraph.flowchart.terminator;whiteSpace=wrap;fontSize=14;" vertex="1" parent="1">
          <mxGeometry x="360" y="920" width="140" height="60" as="geometry" />
        </mxCell>
        <mxCell id="lUcR18TIPmvMDtQTiomy-22" value="客户端" style="text;html=1;align=center;verticalAlign=middle;resizable=0;points=[];autosize=1;strokeColor=none;fillColor=none;fontSize=14;" vertex="1" parent="1">
          <mxGeometry x="637.5" y="940" width="70" height="30" as="geometry" />
        </mxCell>
        <mxCell id="lUcR18TIPmvMDtQTiomy-23" value="后台服务" style="text;html=1;align=center;verticalAlign=middle;resizable=0;points=[];autosize=1;strokeColor=none;fillColor=none;fontSize=14;" vertex="1" parent="1">
          <mxGeometry x="944.75" y="940" width="80" height="30" as="geometry" />
        </mxCell>
        <mxCell id="lUcR18TIPmvMDtQTiomy-24" value="" style="endArrow=classic;html=1;rounded=0;fontSize=14;exitX=1;exitY=0.5;exitDx=0;exitDy=0;exitPerimeter=0;entryX=0;entryY=0.5;entryDx=0;entryDy=0;" edge="1" parent="1" source="lUcR18TIPmvMDtQTiomy-15" target="lUcR18TIPmvMDtQTiomy-16">
          <mxGeometry width="50" height="50" relative="1" as="geometry">
            <mxPoint x="660" y="372" as="sourcePoint" />
            <mxPoint x="710" y="322" as="targetPoint" />
          </mxGeometry>
        </mxCell>
        <mxCell id="lUcR18TIPmvMDtQTiomy-25" value="" style="endArrow=classic;html=1;rounded=0;fontSize=14;exitX=1;exitY=0.5;exitDx=0;exitDy=0;entryX=0;entryY=0.5;entryDx=0;entryDy=0;entryPerimeter=0;" edge="1" parent="1" source="lUcR18TIPmvMDtQTiomy-16" target="lUcR18TIPmvMDtQTiomy-17">
          <mxGeometry width="50" height="50" relative="1" as="geometry">
            <mxPoint x="660" y="372" as="sourcePoint" />
            <mxPoint x="710" y="322" as="targetPoint" />
          </mxGeometry>
        </mxCell>
        <mxCell id="lUcR18TIPmvMDtQTiomy-29" value="" style="endArrow=classic;html=1;rounded=0;fontSize=14;exitX=0.5;exitY=1;exitDx=0;exitDy=0;entryX=1;entryY=0.5;entryDx=0;entryDy=0;exitPerimeter=0;" edge="1" parent="1" source="lUcR18TIPmvMDtQTiomy-17">
          <mxGeometry width="50" height="50" relative="1" as="geometry">
            <mxPoint x="924.75" y="666" as="sourcePoint" />
            <mxPoint x="732.5" y="619.0000000000002" as="targetPoint" />
            <Array as="points">
              <mxPoint x="985" y="620" />
            </Array>
          </mxGeometry>
        </mxCell>
        <mxCell id="lUcR18TIPmvMDtQTiomy-32" value="&lt;font style=&quot;font-size: 15px;&quot;&gt;返回结果&lt;/font&gt;" style="rhombus;whiteSpace=wrap;html=1;" vertex="1" parent="1">
          <mxGeometry x="620" y="580" width="110" height="80" as="geometry" />
        </mxCell>
        <mxCell id="lUcR18TIPmvMDtQTiomy-33" value="" style="endArrow=classic;html=1;rounded=0;fontSize=15;entryX=0.5;entryY=0;entryDx=0;entryDy=0;entryPerimeter=0;startArrow=none;" edge="1" parent="1" target="lUcR18TIPmvMDtQTiomy-18">
          <mxGeometry width="50" height="50" relative="1" as="geometry">
            <mxPoint x="500" y="620" as="sourcePoint" />
            <mxPoint x="690" y="680" as="targetPoint" />
            <Array as="points">
              <mxPoint x="430" y="620" />
            </Array>
          </mxGeometry>
        </mxCell>
        <mxCell id="lUcR18TIPmvMDtQTiomy-34" value="否" style="text;html=1;align=center;verticalAlign=middle;resizable=0;points=[];autosize=1;strokeColor=none;fillColor=none;fontSize=15;" vertex="1" parent="1">
          <mxGeometry x="500" y="605" width="40" height="30" as="geometry" />
        </mxCell>
        <mxCell id="lUcR18TIPmvMDtQTiomy-35" value="" style="endArrow=none;html=1;rounded=0;fontSize=15;exitX=0;exitY=0.5;exitDx=0;exitDy=0;" edge="1" parent="1" source="lUcR18TIPmvMDtQTiomy-32">
          <mxGeometry width="50" height="50" relative="1" as="geometry">
            <mxPoint x="620" y="620" as="sourcePoint" />
            <mxPoint x="541" y="620" as="targetPoint" />
            <Array as="points" />
          </mxGeometry>
        </mxCell>
        <mxCell id="lUcR18TIPmvMDtQTiomy-38" value="输入缺陷数量、类别等" style="shape=parallelogram;html=1;strokeWidth=2;perimeter=parallelogramPerimeter;whiteSpace=wrap;rounded=1;arcSize=12;size=0.23;fontSize=14;" vertex="1" parent="1">
          <mxGeometry x="580" y="728" width="185" height="60" as="geometry" />
        </mxCell>
        <mxCell id="lUcR18TIPmvMDtQTiomy-39" value="" style="endArrow=classic;html=1;rounded=0;fontSize=15;entryX=0.514;entryY=0.033;entryDx=0;entryDy=0;entryPerimeter=0;exitX=0.5;exitY=1;exitDx=0;exitDy=0;startArrow=none;" edge="1" parent="1" source="lUcR18TIPmvMDtQTiomy-40" target="lUcR18TIPmvMDtQTiomy-38">
          <mxGeometry width="50" height="50" relative="1" as="geometry">
            <mxPoint x="640" y="730" as="sourcePoint" />
            <mxPoint x="690" y="680" as="targetPoint" />
          </mxGeometry>
        </mxCell>
        <mxCell id="lUcR18TIPmvMDtQTiomy-40" value="是" style="text;html=1;align=center;verticalAlign=middle;resizable=0;points=[];autosize=1;strokeColor=none;fillColor=none;fontSize=15;" vertex="1" parent="1">
          <mxGeometry x="654.5" y="675" width="40" height="30" as="geometry" />
        </mxCell>
        <mxCell id="lUcR18TIPmvMDtQTiomy-41" value="" style="endArrow=none;html=1;rounded=0;fontSize=15;entryX=0.514;entryY=0.033;entryDx=0;entryDy=0;entryPerimeter=0;exitX=0.5;exitY=1;exitDx=0;exitDy=0;" edge="1" parent="1" source="lUcR18TIPmvMDtQTiomy-32" target="lUcR18TIPmvMDtQTiomy-40">
          <mxGeometry width="50" height="50" relative="1" as="geometry">
            <mxPoint x="675" y="660" as="sourcePoint" />
            <mxPoint x="675.0899999999997" y="729.98" as="targetPoint" />
          </mxGeometry>
        </mxCell>
        <mxCell id="lUcR18TIPmvMDtQTiomy-42" value="验证数据" style="rhombus;whiteSpace=wrap;html=1;fontSize=15;" vertex="1" parent="1">
          <mxGeometry x="920" y="720" width="125.25" height="65" as="geometry" />
        </mxCell>
      </root>
    </mxGraphModel>
  </diagram>
</mxfile>
